# xmcd
#
# Track frame offsets: 
#        150
#        18873
#        33693
#        57997
#        83909
#        101404
#        128818
#        137584
#        154836
#        170712
#
# Disc length: 2583 seconds
#
# Revision: 0
# Processed by: cddbd v1.5.2PL0 Copyright (c) Steve Scherf et al.
# Submitted via: ExactAudioCopy v1.0b3
#
DISCID=7f0a150a
DTITLE=Roslyn - Rackets and Fives
DYEAR=2011
DGENRE=Country
TTITLE0=Good Behaviour
TTITLE1=Peyton Place
TTITLE2=Ellis Island
TTITLE3=London Town
TTITLE4=Chills
TTITLE5=Storm Surge
TTITLE6=Summer's Here
TTITLE7=Rust Bucket
TTITLE8=Hangman
TTITLE9=The Confederate Gold Stand-Off Saga
EXTD=
EXTT0=
EXTT1=
EXTT2=
EXTT3=
EXTT4=
EXTT5=
EXTT6=
EXTT7=
EXTT8=
EXTT9=
PLAYORDER=
